{
    "asset" : {
        "generator" : "Khronos Blender glTF 2.0 I/O",
        "version" : "2.0"
    },
    "scene" : 0,
    "scenes" : [
        {
            "name" : "Scene",
            "nodes" : [
                3
            ]
        }
    ],
    "nodes" : [
        {
            "mesh" : 0,
            "name" : "base cobra new",
            "rotation" : [
                0.7074486017227173,
                4.838459790335037e-05,
                -4.838458698941395e-05,
                0.706764817237854
            ],
            "scale" : [
                0.9365710020065308,
                0.9365708231925964,
                0.9365708231925964
            ],
            "translation" : [
                0.0014128444017842412,
                0.0005291409906931221,
                -0.547214925289154
            ]
        },
        {
            "mesh" : 1,
            "name" : "riflet sup",
            "scale" : [
                0.9365708231925964,
                0.9365708231925964,
                0.9365708231925964
            ],
            "translation" : [
                18.721698760986328,
                0,
                -17.627933502197266
            ]
        },
        {
            "mesh" : 2,
            "name" : "sottobase_",
            "rotation" : [
                0.7074486017227173,
                4.838458335143514e-05,
                -4.838457243749872e-05,
                0.706764817237854
            ],
            "scale" : [
                93.6570816040039,
                93.6570816040039,
                93.6570816040039
            ],
            "translation" : [
                -0.05125134438276291,
                -0.3758760690689087,
                -0.7173975706100464
            ]
        },
        {
            "children" : [
                0,
                1,
                2
            ],
            "name" : "629_cobra",
            "rotation" : [
                0.7071068286895752,
                0,
                0,
                0.7071067094802856
            ],
            "scale" : [
                0.10000000149011612,
                0.10000000149011612,
                0.10000000149011612
            ]
        }
    ],
    "animations" : [
        {
            "channels" : [
                {
                    "sampler" : 0,
                    "target" : {
                        "node" : 1,
                        "path" : "translation"
                    }
                },
                {
                    "sampler" : 1,
                    "target" : {
                        "node" : 1,
                        "path" : "rotation"
                    }
                },
                {
                    "sampler" : 2,
                    "target" : {
                        "node" : 1,
                        "path" : "scale"
                    }
                }
            ],
            "name" : "Animation_0_riflet sup",
            "samplers" : [
                {
                    "input" : 12,
                    "interpolation" : "CUBICSPLINE",
                    "output" : 13
                },
                {
                    "input" : 14,
                    "interpolation" : "LINEAR",
                    "output" : 15
                },
                {
                    "input" : 16,
                    "interpolation" : "STEP",
                    "output" : 17
                }
            ]
        }
    ],
    "materials" : [
        {
            "name" : "cobra sc",
            "pbrMetallicRoughness" : {
                "baseColorFactor" : [
                    0.01792852394282818,
                    0.01589163765311241,
                    0.03634131699800491,
                    1
                ],
                "metallicFactor" : 0,
                "roughnessFactor" : 0.26076364517211914
            }
        },
        {
            "emissiveFactor" : [
                0,
                0,
                0
            ],
            "name" : "Material_2",
            "pbrMetallicRoughness" : {
                "baseColorFactor" : [
                    0.05000000074505806,
                    0.05000000074505806,
                    0.05000000074505806,
                    1
                ],
                "metallicFactor" : 0.4300000071525574,
                "roughnessFactor" : 0.44999998807907104
            }
        }
    ],
    "meshes" : [
        {
            "name" : "Mesh_0",
            "primitives" : [
                {
                    "attributes" : {
                        "POSITION" : 0,
                        "NORMAL" : 1,
                        "TEXCOORD_0" : 2
                    },
                    "indices" : 3,
                    "material" : 0
                }
            ]
        },
        {
            "name" : "Mesh_1",
            "primitives" : [
                {
                    "attributes" : {
                        "POSITION" : 4,
                        "NORMAL" : 5,
                        "TEXCOORD_0" : 6
                    },
                    "indices" : 7,
                    "material" : 0
                }
            ]
        },
        {
            "name" : "Mesh_2",
            "primitives" : [
                {
                    "attributes" : {
                        "POSITION" : 8,
                        "NORMAL" : 9,
                        "TEXCOORD_0" : 10
                    },
                    "indices" : 11,
                    "material" : 1
                }
            ]
        }
    ],
    "accessors" : [
        {
            "bufferView" : 0,
            "componentType" : 5126,
            "count" : 1358,
            "max" : [
                21.358448028564453,
                -0.07614344358444214,
                15.451391220092773
            ],
            "min" : [
                -15.304762840270996,
                -18.233409881591797,
                -15.451391220092773
            ],
            "type" : "VEC3"
        },
        {
            "bufferView" : 1,
            "componentType" : 5126,
            "count" : 1358,
            "type" : "VEC3"
        },
        {
            "bufferView" : 2,
            "componentType" : 5126,
            "count" : 1358,
            "type" : "VEC2"
        },
        {
            "bufferView" : 3,
            "componentType" : 5123,
            "count" : 4500,
            "type" : "SCALAR"
        },
        {
            "bufferView" : 4,
            "componentType" : 5126,
            "count" : 1302,
            "max" : [
                1.312259316444397,
                20.080501556396484,
                0.012779545038938522
            ],
            "min" : [
                -40.55188751220703,
                -20.033218383789062,
                -20.656967163085938
            ],
            "type" : "VEC3"
        },
        {
            "bufferView" : 5,
            "componentType" : 5126,
            "count" : 1302,
            "type" : "VEC3"
        },
        {
            "bufferView" : 6,
            "componentType" : 5126,
            "count" : 1302,
            "type" : "VEC2"
        },
        {
            "bufferView" : 7,
            "componentType" : 5123,
            "count" : 5772,
            "type" : "SCALAR"
        },
        {
            "bufferView" : 8,
            "componentType" : 5126,
            "count" : 150,
            "max" : [
                0.10499999672174454,
                0.0076560406014323235,
                0.10499999672174454
            ],
            "min" : [
                -0.10499999672174454,
                0.001956460066139698,
                -0.10499999672174454
            ],
            "type" : "VEC3"
        },
        {
            "bufferView" : 9,
            "componentType" : 5126,
            "count" : 150,
            "type" : "VEC3"
        },
        {
            "bufferView" : 10,
            "componentType" : 5126,
            "count" : 150,
            "type" : "VEC2"
        },
        {
            "bufferView" : 11,
            "componentType" : 5123,
            "count" : 276,
            "type" : "SCALAR"
        },
        {
            "bufferView" : 12,
            "componentType" : 5126,
            "count" : 2,
            "max" : [
                9.600000381469727
            ],
            "min" : [
                0
            ],
            "type" : "SCALAR"
        },
        {
            "bufferView" : 13,
            "componentType" : 5126,
            "count" : 6,
            "type" : "VEC3"
        },
        {
            "bufferView" : 14,
            "componentType" : 5126,
            "count" : 3,
            "max" : [
                9.600000381469727
            ],
            "min" : [
                0
            ],
            "type" : "SCALAR"
        },
        {
            "bufferView" : 15,
            "componentType" : 5126,
            "count" : 3,
            "type" : "VEC4"
        },
        {
            "bufferView" : 16,
            "componentType" : 5126,
            "count" : 1,
            "max" : [
                0
            ],
            "min" : [
                0
            ],
            "type" : "SCALAR"
        },
        {
            "bufferView" : 17,
            "componentType" : 5126,
            "count" : 1,
            "type" : "VEC3"
        }
    ],
    "bufferViews" : [
        {
            "buffer" : 0,
            "byteLength" : 16296,
            "byteOffset" : 0
        },
        {
            "buffer" : 0,
            "byteLength" : 16296,
            "byteOffset" : 16296
        },
        {
            "buffer" : 0,
            "byteLength" : 10864,
            "byteOffset" : 32592
        },
        {
            "buffer" : 0,
            "byteLength" : 9000,
            "byteOffset" : 43456
        },
        {
            "buffer" : 0,
            "byteLength" : 15624,
            "byteOffset" : 52456
        },
        {
            "buffer" : 0,
            "byteLength" : 15624,
            "byteOffset" : 68080
        },
        {
            "buffer" : 0,
            "byteLength" : 10416,
            "byteOffset" : 83704
        },
        {
            "buffer" : 0,
            "byteLength" : 11544,
            "byteOffset" : 94120
        },
        {
            "buffer" : 0,
            "byteLength" : 1800,
            "byteOffset" : 105664
        },
        {
            "buffer" : 0,
            "byteLength" : 1800,
            "byteOffset" : 107464
        },
        {
            "buffer" : 0,
            "byteLength" : 1200,
            "byteOffset" : 109264
        },
        {
            "buffer" : 0,
            "byteLength" : 552,
            "byteOffset" : 110464
        },
        {
            "buffer" : 0,
            "byteLength" : 8,
            "byteOffset" : 111016
        },
        {
            "buffer" : 0,
            "byteLength" : 72,
            "byteOffset" : 111024
        },
        {
            "buffer" : 0,
            "byteLength" : 12,
            "byteOffset" : 111096
        },
        {
            "buffer" : 0,
            "byteLength" : 48,
            "byteOffset" : 111108
        },
        {
            "buffer" : 0,
            "byteLength" : 4,
            "byteOffset" : 111156
        },
        {
            "buffer" : 0,
            "byteLength" : 12,
            "byteOffset" : 111160
        }
    ],
    "buffers" : [
        {
            "byteLength" : 111172,
            "uri" : "data:application/octet-stream;base64,"
        }
    ]
}
